<svg xmlns="http://www.w3.org/2000/svg" xmlns:xlink="http://www.w3.org/1999/xlink" width="348.658" height="217.309" viewBox="0 0 348.658 217.309">
  <defs>
    <linearGradient id="linear-gradient" x1="0.499" y1="0.975" x2="0.499" y2="0.068" gradientUnits="objectBoundingBox">
      <stop offset="0" stop-color="#fff"/>
      <stop offset="1" stop-color="#cfe2f0"/>
    </linearGradient>
    <linearGradient id="linear-gradient-2" x1="0.5" y1="0.975" x2="0.5" y2="0.068" gradientUnits="objectBoundingBox">
      <stop offset="0" stop-color="#fff"/>
      <stop offset="1" stop-color="#e0ecf5"/>
    </linearGradient>
    <linearGradient id="linear-gradient-3" x1="0.5" y1="0.976" x2="0.5" y2="0.069" gradientUnits="objectBoundingBox">
      <stop offset="0" stop-color="#fff"/>
      <stop offset="1" stop-color="#94cff7"/>
    </linearGradient>
    <linearGradient id="linear-gradient-4" x1="0.5" y1="0.975" x2="0.5" y2="0.068" xlink:href="#linear-gradient-3"/>
    <linearGradient id="linear-gradient-5" x1="0.5" y1="1.035" x2="0.5" y2="0.596" gradientUnits="objectBoundingBox">
      <stop offset="0" stop-color="#6ebdf4"/>
      <stop offset="1" stop-color="#64b5f6"/>
    </linearGradient>
  </defs>
  <g id="web-img-2" transform="translate(-0.358 -1.11)">
    <g id="Group" transform="translate(94.184)">
      <path id="Path" d="M0,68.856V33.972c0-4.36,1.19-5.748,5.354-5.748,25.78-.4,47.792-10.7,68.218-25.568,4.561-3.369,5.156-3.568,9.32-.4A127.079,127.079,0,0,0,122.95,23.269c4.363,1.387,4.363,1.387.992,4.757L13.683,138.226c-2.975,2.973-3.173,2.973-4.759-.991a106.736,106.736,0,0,1-8.329-33.3C-.595,91.451.595,78.964,0,68.856Z" transform="translate(1.586 1.11)" fill="#efefef"/>
      <g id="Group-2" data-name="Group" transform="translate(15.865 27.748)">
        <path id="Path-2" data-name="Path" d="M113.366,46.579,142.12,17.245V4.164a3.049,3.049,0,0,0-2.975-2.973h-5.354A46.129,46.129,0,0,1,123.281.2c-2.38-.595-3.57.2-5.156,1.586C109.6,10.506,100.873,19.029,92.147,27.75L1.719,118.13c-2.181,2.18-2.181,3.568-.595,6.144,3.57,5.748,7.932,10.9,12.3,16.253,2.776,3.171,2.975,3.369,5.949.2q47-47.271,94-94.146Z" transform="translate(0.859 0.395)" fill="#efefef"/>
        <path id="Path-3" data-name="Path" d="M119.9,0,99.477,20.217h0Q50.4,69.272,1.315,118.129c-1.785,1.784-1.785,2.775.2,4.162a131.614,131.614,0,0,0,37.48,21.8,7.081,7.081,0,0,0,4.958-.2c18.839-7.333,35.3-18.036,48.783-33.3a105.521,105.521,0,0,0,23-42.415C119.7,54.307,119.9,40.037,119.9,25.766Z" transform="translate(23.077 28.145)" fill="#efefef"/>
      </g>
    </g>
    <g id="Group-3" data-name="Group" transform="translate(262.745 69.371)">
      <path id="Path-4" data-name="Path" d="M.044,0S-.551,35.082,2.622,37.46s45.214,1.189,45.214,1.189L49.026.4Z" transform="translate(5.905 33.1)" fill="#978c89"/>
      <path id="Path-5" data-name="Path" d="M44.421,25.965C25.185,38.848,5.156,29.334,0,26.361c6.148-1.387,9.519-4.162,11.105-7.532V0h23.4V18.829C36.092,22,39.066,24.577,44.421,25.965Z" transform="translate(8.329 63.425)" fill="#fcdad1"/>
      <path id="Path-6" data-name="Path" d="M23.6,0V11.694a14.149,14.149,0,0,1-6.941,5.153C9.122,19.622,3.57,14.667,0,10.108V2.775L18.641.2H23.6Z" transform="translate(19.434 63.425)" fill="#fbc5be"/>
      <path id="Path-7" data-name="Path" d="M18.641,0,0,2.577V0Z" transform="translate(19.434 63.425)" fill="#f99f93"/>
      <path id="Path-8" data-name="Path" d="M.049,18.829s-.595,1.586,2.38,18.235C5.2,51.929,18.689,54.109,21.466,54.307c2.776-.4,16.261-2.577,19.037-17.244,3.173-16.451,2.38-18.235,2.38-18.235V0H.842Z" transform="translate(8.875 21.009)" fill="#fcdad1"/>
      <path id="Path-9" data-name="Path" d="M5.751,12.685a41.22,41.22,0,0,1,30.738.2,3.137,3.137,0,0,0,4.363-2.18L43.826.2,0,0,1.388,10.108A3.322,3.322,0,0,0,5.751,12.685Z" transform="translate(9.915 32.505)" fill="#fbc5be"/>
      <path id="Path-10" data-name="Path" d="M.177,15.893a3.811,3.811,0,0,1,2.181,2.973l1.19,5.153a1.508,1.508,0,0,0,1.586,1.189h.2C9.3,24.217,7.316,7.766,7.118,1.424c0,0-5.354-4.36-6.544,2.18C-.219,6.577-.021,11.334.177,15.893Z" transform="translate(5.772 20.775)" fill="#978c89"/>
      <path id="Path-11" data-name="Path" d="M7.2,3.695A4.624,4.624,0,0,0,4.621.524C2.241-.467-.931-.864.258,7.064c1.983,11.694,9.519,8.324,9.519,8.324Z" transform="translate(0.931 35.946)" fill="#fcdad1"/>
      <path id="Path-12" data-name="Path" d="M7.611,15.893A3.811,3.811,0,0,0,5.43,18.866L4.24,24.019a1.508,1.508,0,0,1-1.586,1.189h-.2C-1.511,24.217.472,7.766.67,1.424c0,0,5.354-4.36,6.544,2.18C7.809,6.577,7.809,11.334,7.611,15.893Z" transform="translate(47.32 20.775)" fill="#978c89"/>
      <path id="Path-13" data-name="Path" d="M2.578,3.695A4.624,4.624,0,0,1,5.156.524c2.38-.991,5.553-1.387,4.363,6.541C7.536,18.758,0,15.389,0,15.389Z" transform="translate(50.172 35.946)" fill="#fcdad1"/>
      <path id="Path-14" data-name="Path" d="M4.561,3.369C3.173,3.369,0,0,0,0A14.19,14.19,0,0,0,8.131,0C8.329,0,5.751,3.369,4.561,3.369Z" transform="translate(26.375 53.118)" fill="#fbc5be"/>
      <path id="Path-15" data-name="Path" d="M49.577,24.973l-.4,6.342H0V25.172C1.983,10.9,12.493,0,24.788,0,37.083.2,47.4,10.9,49.577,24.973Z" transform="translate(5.751)" fill="#a8d7f8"/>
      <path id="Path-16" data-name="Path" d="M6.78,16.8A42.7,42.7,0,0,1,37.32,17a4.084,4.084,0,0,0,5.354-2.775l2.181-7.928A2.254,2.254,0,0,0,43.269,3.52c-14.675-4.559-28.556-4.757-41.843-.2A2.153,2.153,0,0,0,.038,5.7l1.19,7.73A4.1,4.1,0,0,0,6.78,16.8Z" transform="translate(8.093 25.418)" fill="#94cff7"/>
      <path id="Path-17" data-name="Path" d="M44.817,1.784,42.636,9.712a4.084,4.084,0,0,1-5.354,2.775,42.7,42.7,0,0,0-30.539-.2A4.147,4.147,0,0,1,1.19,8.919L0,1.189A2.513,2.513,0,0,1,.2,0L1.19,7.333A4.257,4.257,0,0,0,6.742,10.7a42.7,42.7,0,0,1,30.539.2,4.084,4.084,0,0,0,5.354-2.775L44.619.2A4.362,4.362,0,0,1,44.817,1.784Z" transform="translate(8.329 29.929)" fill="#94cff7"/>
    </g>
    <g id="Group-4" data-name="Group" transform="translate(187.389 85.227)">
      <path id="Path-18" data-name="Path" d="M57.707,0V14.667c1.19,2.577,3.966,4.757,8.924,5.946C85.867,24.973,91.419,47.37,91.419,47.37L92.014,66.4,0,65.407,5.751,47.37s5.354-22.4,24.788-26.757c4.958-1.189,7.734-3.369,8.924-5.946V0Z" transform="translate(0.595 50.542)" fill="url(#linear-gradient)"/>
      <path id="Path-19" data-name="Path" d="M34.505,20.217C19.632,30.325,4.164,22.793,0,20.415c4.759-1.189,7.337-3.171,8.527-5.748V0H26.771V14.667C27.961,17.045,30.341,19.027,34.505,20.217Z" transform="translate(31.332 50.343)" fill="#e7e1df"/>
      <path id="Path-20" data-name="Path" d="M18.244.2V9.117a10.565,10.565,0,0,1-5.354,3.964C7.139,15.262,2.776,11.5,0,7.73V1.982L14.476,0h3.768Z" transform="translate(40.058 50.343)" fill="#d8d0ce"/>
      <path id="Path-21" data-name="Path" d="M14.476,0,0,1.982V0Z" transform="translate(40.058 50.542)" fill="#f99f93"/>
      <path id="Path-22" data-name="Path" d="M.059,14.667s-.595,1.387,1.983,14.072c2.181,11.5,12.692,13.28,14.675,13.478,2.181-.2,12.493-1.982,14.675-13.478,2.38-12.883,1.983-14.072,1.983-14.072V0H.654Z" transform="translate(31.67 17.442)" fill="#e7e1df"/>
      <path id="Path-23" data-name="Path" d="M4.759,9.91a31.869,31.869,0,0,1,23.8,0,2.5,2.5,0,0,0,3.371-1.586L34.109.2,0,0,1.19,7.73A2.634,2.634,0,0,0,4.759,9.91Z" transform="translate(32.324 26.361)" fill="#d8d0ce"/>
      <path id="Path-24" data-name="Path" d="M.088,12.181A3.693,3.693,0,0,1,1.873,14.56l.793,3.964a1.257,1.257,0,0,0,1.19.991h0C6.831,18.722,5.442,6.037,5.244,1.082c0,0-4.164-3.369-5.156,1.784C-.11,4.848.088,8.614.088,12.181Z" transform="translate(29.261 17.549)" fill="#c1c5c7"/>
      <path id="Path-25" data-name="Path" d="M5.574,2.783A3.414,3.414,0,0,0,3.591.4C1.807-.388-.771-.587.22,5.36,1.608,14.477,7.557,11.9,7.557,11.9Z" transform="translate(25.56 29.128)" fill="#e7e1df"/>
      <path id="Path-26" data-name="Path" d="M5.652,12.181A3.693,3.693,0,0,0,3.867,14.56l-.793,3.964a1.257,1.257,0,0,1-1.19.991h0C-1.091,18.722.3,6.037.5,1.082c0,0,4.164-3.369,5.156,1.784A71.821,71.821,0,0,1,5.652,12.181Z" transform="translate(61.773 17.549)" fill="#c1c5c7"/>
      <path id="Path-27" data-name="Path" d="M1.983,2.783A3.414,3.414,0,0,1,3.966.4C5.751-.388,8.329-.587,7.337,5.36,5.949,14.477,0,11.9,0,11.9Z" transform="translate(63.656 29.128)" fill="#e7e1df"/>
      <path id="Path-28" data-name="Path" d="M3.57,2.577C2.578,2.577,0,0,0,0A11.51,11.51,0,0,0,6.346,0C6.544,0,4.561,2.577,3.57,2.577Z" transform="translate(45.214 40.83)" fill="#d8d0ce"/>
      <path id="Path-29" data-name="Path" d="M38.472,19.226l-.4,4.955H0V19.424C1.586,8.324,9.717,0,19.236,0S36.687,8.324,38.472,19.226Z" transform="translate(29.349 1.387)" fill="#cfe2f0"/>
      <path id="Path-30" data-name="Path" d="M5.354,13.012a32.344,32.344,0,0,1,23.6.2,3.192,3.192,0,0,0,4.164-2.18L34.9,4.886a1.8,1.8,0,0,0-1.19-2.18C22.409-.664,11.5-1.061,1.19,2.507A1.831,1.831,0,0,0,0,4.489l.793,5.946A3.675,3.675,0,0,0,5.354,13.012Z" transform="translate(31.134 21.079)" fill="#c6dff0"/>
      <path id="Path-31" data-name="Path" d="M34.7,1.387,32.919,7.532a3.268,3.268,0,0,1-4.164,2.18,33.384,33.384,0,0,0-23.6-.2A3.4,3.4,0,0,1,.793,6.937L0,.991A1.786,1.786,0,0,1,.2,0L.992,5.55A3.322,3.322,0,0,0,5.354,8.126a32.344,32.344,0,0,1,23.6.2,3.192,3.192,0,0,0,4.164-2.18L34.7,0C34.7.595,34.9.991,34.7,1.387Z" transform="translate(31.332 24.379)" fill="#c6dff0"/>
    </g>
    <g id="Group-5" data-name="Group" transform="translate(62.455 85.227)">
      <path id="Path-32" data-name="Path" d="M57.707,0V14.667c1.19,2.577,3.966,4.757,8.924,5.946C85.867,24.973,91.419,47.37,91.419,47.37L92.014,66.4,0,65.407,5.751,47.37s5.354-22.4,24.788-26.757c4.958-1.189,7.734-3.369,8.924-5.946V0Z" transform="translate(1.19 50.542)" fill="url(#linear-gradient-2)"/>
      <path id="Path-33" data-name="Path" d="M34.505,20.217C19.632,30.325,4.164,22.793,0,20.415c4.759-1.189,7.337-3.171,8.527-5.748V0H26.771V14.667C27.961,17.045,30.341,19.027,34.505,20.217Z" transform="translate(31.927 50.343)" fill="#e7e1df"/>
      <path id="Path-34" data-name="Path" d="M18.244.2V9.117a10.565,10.565,0,0,1-5.354,3.964C7.139,15.262,2.776,11.5,0,7.73V1.982L14.476,0h3.768Z" transform="translate(40.653 50.343)" fill="#d8d0ce"/>
      <path id="Path-35" data-name="Path" d="M14.476,0,0,1.982V0Z" transform="translate(40.653 50.542)" fill="#f99f93"/>
      <path id="Path-36" data-name="Path" d="M.059,14.667s-.595,1.387,1.983,14.072c2.181,11.5,12.692,13.28,14.675,13.478,2.181-.2,12.493-1.982,14.675-13.478,2.38-12.883,1.983-14.072,1.983-14.072V0H.853Z" transform="translate(32.265 17.442)" fill="#e7e1df"/>
      <path id="Path-37" data-name="Path" d="M4.759,9.91a31.869,31.869,0,0,1,23.8,0,2.5,2.5,0,0,0,3.371-1.586L34.109.2,0,0,1.19,7.73A2.634,2.634,0,0,0,4.759,9.91Z" transform="translate(32.919 26.361)" fill="#d8d0ce"/>
      <path id="Path-38" data-name="Path" d="M.149,12.181A3.693,3.693,0,0,1,1.933,14.56l.793,3.964a1.257,1.257,0,0,0,1.19.991h0C6.891,18.722,5.5,6.037,5.3,1.082c0,0-4.164-3.369-5.156,1.784A71.821,71.821,0,0,0,.149,12.181Z" transform="translate(29.994 17.549)" fill="#c1c5c7"/>
      <path id="Path-39" data-name="Path" d="M5.574,2.783A3.414,3.414,0,0,0,3.591.4C1.807-.388-.771-.587.22,5.36,1.608,14.477,7.557,11.9,7.557,11.9Z" transform="translate(26.155 29.128)" fill="#e7e1df"/>
      <path id="Path-40" data-name="Path" d="M5.652,12.181A3.693,3.693,0,0,0,3.867,14.56l-.793,3.964a1.257,1.257,0,0,1-1.19.991h0C-1.091,18.722.3,6.037.5,1.082c0,0,4.164-3.369,5.156,1.784A71.821,71.821,0,0,1,5.652,12.181Z" transform="translate(62.367 17.549)" fill="#c1c5c7"/>
      <path id="Path-41" data-name="Path" d="M1.983,2.783A3.414,3.414,0,0,1,3.966.4C5.751-.388,8.329-.587,7.337,5.36,5.949,14.477,0,11.9,0,11.9Z" transform="translate(64.45 29.128)" fill="#e7e1df"/>
      <path id="Path-42" data-name="Path" d="M3.57,2.577C2.578,2.577,0,0,0,0A11.51,11.51,0,0,0,6.346,0S4.363,2.577,3.57,2.577Z" transform="translate(46.007 40.83)" fill="#d8d0ce"/>
      <path id="Path-43" data-name="Path" d="M38.472,19.226l-.4,4.955H0V19.424C1.586,8.324,9.717,0,19.236,0S36.687,8.324,38.472,19.226Z" transform="translate(29.944 1.387)" fill="#cfe2f0"/>
      <path id="Path-44" data-name="Path" d="M5.354,13.012a32.344,32.344,0,0,1,23.6.2,3.192,3.192,0,0,0,4.164-2.18L34.9,4.886a1.8,1.8,0,0,0-1.19-2.18C22.409-.664,11.5-1.061,1.19,2.507A1.831,1.831,0,0,0,0,4.489l.793,5.946A3.675,3.675,0,0,0,5.354,13.012Z" transform="translate(31.729 21.079)" fill="#c6dff0"/>
      <path id="Path-45" data-name="Path" d="M34.7,1.387,32.919,7.532a3.268,3.268,0,0,1-4.164,2.18,33.384,33.384,0,0,0-23.6-.2A3.4,3.4,0,0,1,.793,6.937L0,.991A1.786,1.786,0,0,1,.2,0L.992,5.55A3.322,3.322,0,0,0,5.354,8.126a32.344,32.344,0,0,1,23.6.2,3.192,3.192,0,0,0,4.164-2.18L34.7,0C34.7.595,34.9.991,34.7,1.387Z" transform="translate(31.927 24.379)" fill="#cfe2f0"/>
      <path id="Path-46" data-name="Path" d="M0,2.973,4.561,0h8.725l4.164,2.973C17.451,4.757,0,4.757,0,2.973" transform="translate(41.049 44.001)" fill="#c1c5c7"/>
    </g>
    <g id="Group-6" data-name="Group" transform="translate(24.777 69.371)">
      <path id="Path-47" data-name="Path" d="M44.421,25.965C25.185,39.046,5.156,29.334,0,26.361c6.148-1.387,9.519-4.162,11.105-7.532V0H34.7V18.829C36.092,21.8,39.066,24.379,44.421,25.965Z" transform="translate(8.924 63.425)" fill="#c7b8b2"/>
      <path id="Path-48" data-name="Path" d="M23.6,0V11.694a14.149,14.149,0,0,1-6.941,5.153C9.122,19.622,3.57,14.667,0,10.108V2.775L18.641.2H23.6Z" transform="translate(20.029 63.425)" fill="#beaca6"/>
      <path id="Path-49" data-name="Path" d="M18.641,0,0,2.577V0Z" transform="translate(20.029 63.425)" fill="#f99f93"/>
      <path id="Path-50" data-name="Path" d="M.049,19.027s-.595,1.586,2.38,18.235C5.2,52.127,18.689,54.307,21.466,54.7c2.776-.4,16.261-2.577,19.037-17.442,3.173-16.451,2.38-18.235,2.38-18.235V0H.842Z" transform="translate(9.47 20.811)" fill="#c7b8b2"/>
      <path id="Path-51" data-name="Path" d="M.119,15.893A3.811,3.811,0,0,1,2.3,18.866l1.19,5.153a1.508,1.508,0,0,0,1.586,1.189h.2C9.241,24.217,7.258,7.766,7.059,1.424c0,0-5.354-4.36-6.544,2.18C-.08,6.577-.08,11.334.119,15.893Z" transform="translate(6.227 20.577)" fill="#c7b8b2"/>
      <path id="Path-52" data-name="Path" d="M7.2,3.695A4.624,4.624,0,0,0,4.621.524C2.241-.467-.931-.864.258,7.064c1.983,11.694,9.519,8.324,9.519,8.324Z" transform="translate(1.526 35.747)" fill="#c7b8b2"/>
      <path id="Path-53" data-name="Path" d="M7.611,15.893A3.811,3.811,0,0,0,5.43,18.866L4.24,24.019a1.508,1.508,0,0,1-1.586,1.189h-.2C-1.511,24.217.472,7.766.67,1.424c0,0,5.354-4.36,6.544,2.18C7.809,6.577,7.809,11.334,7.611,15.893Z" transform="translate(47.915 20.577)" fill="#c7b8b2"/>
      <path id="Path-54" data-name="Path" d="M5.949,12.685a41.22,41.22,0,0,1,30.738.2,3.137,3.137,0,0,0,4.363-2.18L44.024.2,0,0,1.388,10.108A3.289,3.289,0,0,0,5.949,12.685Z" transform="translate(10.312 32.307)" fill="#beaca6"/>
      <path id="Path-55" data-name="Path" d="M2.578,3.695A4.624,4.624,0,0,1,5.156.524c2.38-.991,5.553-1.387,4.363,6.541C7.536,18.758,0,15.389,0,15.389Z" transform="translate(50.568 35.747)" fill="#c7b8b2"/>
      <path id="Path-56" data-name="Path" d="M4.561,3.369C3.173,3.369,0,0,0,0A14.19,14.19,0,0,0,8.131,0C8.329,0,5.751,3.171,4.561,3.369Z" transform="translate(26.97 50.938)" fill="#beaca6"/>
      <path id="Path-57" data-name="Path" d="M49.577,24.775l-.4,6.541H0V25.172C1.983,10.9,12.493,0,24.788,0S47.4,10.7,49.577,24.775Z" transform="translate(6.346)" fill="#a8d7f8"/>
      <path id="Path-58" data-name="Path" d="M6.78,16.8A42.7,42.7,0,0,1,37.32,17a4.084,4.084,0,0,0,5.354-2.775l2.181-7.928A2.254,2.254,0,0,0,43.269,3.52c-14.675-4.559-28.556-4.757-41.843-.2A2.153,2.153,0,0,0,.038,5.7l1.19,7.73A4.257,4.257,0,0,0,6.78,16.8Z" transform="translate(8.687 25.418)" fill="#94cff7"/>
      <path id="Path-59" data-name="Path" d="M44.817,1.784,42.636,9.712a3.955,3.955,0,0,1-5.354,2.775,42.7,42.7,0,0,0-30.539-.2A4.147,4.147,0,0,1,1.19,8.919L0,1.189A2.513,2.513,0,0,1,.2,0L1.19,7.333A4.257,4.257,0,0,0,6.742,10.7a42.7,42.7,0,0,1,30.539.2,4.084,4.084,0,0,0,5.354-2.775L44.619.2A4.362,4.362,0,0,1,44.817,1.784Z" transform="translate(8.924 29.73)" fill="#94cff7"/>
    </g>
    <path id="Path-60" data-name="Path" d="M117.4,59.659,0,58.271l7.337-23.19S14.278,6.144,39.265.595A.729.729,0,0,0,39.86.4C45.016,3.369,65.045,13.081,84.28,0a5.793,5.793,0,0,0,1.785.4,36.945,36.945,0,0,1,20.227,12.487c7.734,8.919,11.5,20.811,11.3,32.505Z" transform="translate(231.413 158.76)" fill="url(#linear-gradient-3)"/>
    <path id="Path-61" data-name="Path" d="M.225,59.659l115.415-.793-5.354-23.784S103.345,6.144,78.358.595a.729.729,0,0,1-.595-.2C72.607,3.369,52.578,13.081,33.343,0a5.793,5.793,0,0,1-1.785.4A36.945,36.945,0,0,0,11.331,12.883a47.73,47.73,0,0,0-11.3,32.7Z" transform="translate(0.358 158.562)" fill="url(#linear-gradient-4)"/>
    <g id="Group-7" data-name="Group" transform="translate(102.117 55.497)">
      <path id="Path-62" data-name="Path" d="M143.376,45.388H0S9.122,7.73,41.446.595a.729.729,0,0,0,.595-.2C48.783,4.162,74.762,16.847,99.55,0l2.38.595C134.254,7.73,143.376,45.388,143.376,45.388Z" transform="translate(1.19 116.543)" fill="url(#linear-gradient-5)"/>
      <path id="Path-63" data-name="Path" d="M57.509,33.694C32.721,50.542,6.742,37.857,0,34.091c7.932-1.982,12.3-5.351,14.476-9.712V0H45.016V24.379C46.8,28.343,50.568,31.712,57.509,33.694Z" transform="translate(43.231 82.849)" fill="#fbcbbd"/>
      <path id="Path-64" data-name="Path" d="M30.341.2V15.262A17.828,17.828,0,0,1,21.417,21.8C11.7,25.37,4.363,19.027,0,12.883V3.369L24.193,0h6.148Z" transform="translate(57.707 82.65)" fill="#f99f93"/>
      <path id="Path-65" data-name="Path" d="M24.193,0,0,3.369V0Z" transform="translate(57.707 82.849)" fill="#f99f93"/>
      <path id="Path-66" data-name="Path" d="M21.219,13.28H1.19A1.279,1.279,0,0,1,0,12.09V1.189A1.279,1.279,0,0,1,1.19,0H21.219a1.279,1.279,0,0,1,1.19,1.189v10.9A1.279,1.279,0,0,1,21.219,13.28Z" transform="translate(35.1 137.949)" fill="#fff"/>
      <path id="Path-67" data-name="Path" d="M.065,24.577s-.793,2.18,3.173,23.586c3.57,19.226,21.021,22,24.59,22.4,3.57-.4,21.021-3.369,24.59-22.4,3.966-21.406,3.173-23.586,3.173-23.586V0H.858Z" transform="translate(43.761 27.748)" fill="#fbcbbd"/>
      <path id="Path-68" data-name="Path" d="M7.536,16.253a53.325,53.325,0,0,1,39.86.2,4.348,4.348,0,0,0,5.751-2.775L56.914.2,0,0,1.785,13.081A4.224,4.224,0,0,0,7.536,16.253Z" transform="translate(45.016 42.812)" fill="#f99f93"/>
      <path id="Path-69" data-name="Path" d="M.119,20.6a5.652,5.652,0,0,1,2.975,3.766L4.481,31.11A1.931,1.931,0,0,0,6.464,32.7h.2c4.958-1.189,2.578-22.6,2.38-30.92,0,0-6.941-5.55-8.527,2.973C-.08,8.515-.08,14.857.119,20.6Z" transform="translate(39.741 27.36)" fill="#374850"/>
      <path id="Path-70" data-name="Path" d="M9.261,4.65A5.45,5.45,0,0,0,6.088.686C3.114-.7-1.249-.9.337,9.208c2.38,15.262,12.3,10.9,12.3,10.9Z" transform="translate(33.573 47.279)" fill="#fbcbbd"/>
      <path id="Path-71" data-name="Path" d="M9.667,20.6a5.652,5.652,0,0,0-2.975,3.766L5.3,31.11A1.931,1.931,0,0,1,3.322,32.7h-.2C-1.834,31.506.545,10.1.744,1.776c0,0,6.941-5.55,8.527,2.973C10.064,8.515,9.866,14.857,9.667,20.6Z" transform="translate(93.849 27.36)" fill="#374850"/>
      <path id="Path-72" data-name="Path" d="M3.371,4.65A5.45,5.45,0,0,1,6.544.686C9.519-.7,13.881-.9,12.3,9.208,9.915,24.47,0,20.109,0,20.109Z" transform="translate(97.17 47.279)" fill="#fbcbbd"/>
      <path id="Path-73" data-name="Path" d="M5.751,4.36C3.966,4.36,0,0,0,0A19.657,19.657,0,0,0,10.709,0S7.337,4.36,5.751,4.36Z" transform="translate(66.631 66.596)" fill="#f99f93"/>
      <path id="Path-74" data-name="Path" d="M64.45,32.307l-.595,8.324H0V32.505C2.776,14.072,16.063,0,32.126,0S61.673,13.874,64.45,32.307Z" transform="translate(39.661 0.595)" fill="#6ebdf4"/>
      <path id="Path-75" data-name="Path" d="M8.557,21.731c12.89-4.559,26.176-4.955,39.661.2a5.2,5.2,0,0,0,6.941-3.568L58.134,8.055a2.836,2.836,0,0,0-1.983-3.568c-18.839-5.748-37.083-6.144-54.138-.2A2.844,2.844,0,0,0,.03,7.46L1.418,17.569A5.444,5.444,0,0,0,8.557,21.731Z" transform="translate(43.002 33.568)" fill="#4caff2"/>
      <g id="Bluon-Master" transform="translate(59.492 9.91)">
        <path id="Shape_4_" d="M9.915,0h0C6.742,1.387,0,1.982,0,4.162V11.1C0,9.117,5.553,8.523,8.924,7.333L9.915,0Z" transform="translate(13.485)" fill="#0ba2dd"/>
        <path id="Shape_5_" d="M0,0V6.937C0,9.91,11.5,9.91,11.5,12.685V5.748C11.7,2.775,0,2.775,0,0Z" transform="translate(13.485 4.162)" fill="#1d81db"/>
        <path id="Shape_6_" d="M11.5,6.937C11.5,9.91,0,9.91,0,12.685V5.748C0,2.775,11.5,2.775,11.5,0V6.937Z" transform="translate(13.683 9.91)" fill="#0ba2dd"/>
        <path id="Shape_7_" d="M7.932,3.369C4.561,2.378,0,1.784,0,0V6.937C0,4.955,4.561,4.36,7.932,3.369" transform="translate(13.485 4.162)" fill="#0367cf"/>
        <path id="Shape_8_" d="M0,0,.992,7.333C4.363,8.523,9.915,9.117,9.915,11.1V4.162C9.915,1.982,3.173,1.387,0,0" transform="translate(2.578)" fill="#0ba2dd"/>
        <path id="Shape_9_" d="M0,5.748v6.937C0,9.712,11.5,9.712,11.5,6.937V0C11.7,2.775,0,2.775,0,5.748Z" transform="translate(0.793 4.162)" fill="#1d81db"/>
        <path id="Shape_10_" d="M0,6.937C0,9.91,11.5,9.91,11.5,12.685V5.748C11.5,2.775,0,2.775,0,0V6.937Z" transform="translate(0.793 9.91)" fill="#0ba2dd"/>
        <path id="Shape_11_" d="M0,3.369C3.371,2.378,7.932,1.784,7.932,0V6.937C7.932,4.955,3.371,4.36,0,3.369" transform="translate(4.561 4.162)" fill="#0367cf"/>
      </g>
      <path id="Path-76" data-name="Path" d="M58.1,2.378,55.328,12.685a5.4,5.4,0,0,1-7.139,3.568C34.7,11.1,21.615,11.5,8.527,16.054a5.371,5.371,0,0,1-7.139-4.36L0,1.586A4.362,4.362,0,0,1,.2,0l1.19,9.316a5.371,5.371,0,0,0,7.139,4.36c13.088-4.559,26.176-4.955,39.661.2a5.47,5.47,0,0,0,7.139-3.568L57.906.2A2.807,2.807,0,0,1,58.1,2.378Z" transform="translate(43.033 39.244)" fill="#0193d7"/>
    </g>
    <rect id="Rectangle" width="23.4" height="0.1" transform="translate(282.179 132.796)" fill="#fbcbbd"/>
    <path id="Path-77" data-name="Path" d="M16.658,10.5H1.19A1.279,1.279,0,0,1,0,9.316V1.189A1.279,1.279,0,0,1,1.19,0H16.658a1.279,1.279,0,0,1,1.19,1.189V9.316C18.046,10.108,17.451,10.5,16.658,10.5Z" transform="translate(268.694 176.598)" fill="#fff" opacity="0.46"/>
    <path id="Path-78" data-name="Path" d="M15.666,10.108H1.388A1.355,1.355,0,0,1,0,8.721V1.387A1.355,1.355,0,0,1,1.388,0H15.666a1.355,1.355,0,0,1,1.388,1.387V8.721A1.355,1.355,0,0,1,15.666,10.108Z" transform="translate(30.528 178.184)" fill="#fff" opacity="0.46"/>
  </g>
</svg>
