<svg xmlns="http://www.w3.org/2000/svg" width="16" height="20" viewBox="0 0 16 20">
  <g id="ico-call" transform="translate(0 0)">
    <path id="Fill_1" data-name="Fill 1" d="M12.2,5.5l-.657-.336A5.389,5.389,0,0,0,6.222,0,5.389,5.389,0,0,0,.9,5.166L.245,5.5A.456.456,0,0,0,0,5.909v.909a.456.456,0,0,0,.245.406l.889.455.017.006.025.01a.439.439,0,0,0,.156.032h0A.427.427,0,0,0,1.486,7.7a.38.38,0,0,0,.039-.017.439.439,0,0,0,.1-.072c.007-.006.015-.011.021-.017a.452.452,0,0,0,.08-.113s0-.01,0-.014a.437.437,0,0,0,.023-.087.45.45,0,0,0,.018-.09s0-.009,0-.013V5.455A4.5,4.5,0,0,1,6.222.909a4.5,4.5,0,0,1,4.444,4.545v1.48l-.889.273V5.455A3.6,3.6,0,0,0,6.222,1.818,3.6,3.6,0,0,0,2.667,5.455V7.273a3.6,3.6,0,0,0,3.556,3.636A3.528,3.528,0,0,0,9.175,9.288l-2.04.626a.431.431,0,0,1-.128.02.446.446,0,0,1-.426-.325.457.457,0,0,1,.3-.566l4.37-1.34.009,0a.466.466,0,0,0,.051-.019l.889-.455a.456.456,0,0,0,.246-.406V5.909A.456.456,0,0,0,12.2,5.5Z" transform="translate(1.778 0)" fill="#fff"/>
    <path id="Fill_3" data-name="Fill 3" d="M15.556,9.091H.444A.449.449,0,0,1,0,8.636V8.182A8.1,8.1,0,0,1,8,0a8.1,8.1,0,0,1,8,8.182v.455a.449.449,0,0,1-.444.455" transform="translate(0 10.909)" fill="#fff"/>
  </g>
</svg>
